<svg width="562" height="541" viewBox="0 0 562 541" fill="none" xmlns="http://www.w3.org/2000/svg">
<path d="M135.842 395.63V225.771L246.986 160.385L358.158 225.771V395.63H135.842Z" fill="#DBF2FF"/>
<path d="M246.987 164.293L354.79 227.699V392.263H139.211V227.699L246.987 164.293ZM246.987 156.479L132.475 223.846V399H361.527V223.846L246.987 156.479Z" fill="#7496C4"/>
<path d="M139.214 365.314H354.793V392.261H139.214V365.314Z" fill="#B5DDF5"/>
<path d="M246.99 167.555L122.372 243.747V223.139L246.99 146.947L371.635 223.139V243.747L246.99 167.555Z" fill="#F78F8F"/>
<path d="M246.987 150.895L368.263 225.026V237.738L250.496 165.757L246.98 163.608L243.463 165.757L125.737 237.738V225.026L246.987 150.895ZM246.987 143L119 221.247V249.75L246.987 171.503L375 249.75V221.247L246.987 143Z" fill="#C74343"/>
<path d="M209.95 281.106H284.055V395.63H209.95V281.106Z" fill="#FFC49C"/>
<path d="M280.688 284.47V392.257H213.319V284.47H280.688ZM287.425 277.733H206.583V398.994H287.425V277.733Z" fill="#A16A4A"/>
<path d="M267.213 338.366C265.427 338.366 263.713 339.076 262.45 340.339C261.186 341.603 260.477 343.316 260.477 345.103C260.477 346.89 261.186 348.603 262.45 349.866C263.713 351.13 265.427 351.84 267.213 351.84C269 351.84 270.714 351.13 271.977 349.866C273.24 348.603 273.95 346.89 273.95 345.103C273.95 343.316 273.24 341.603 271.977 340.339C270.714 339.076 269 338.366 267.213 338.366Z" fill="#A16A4A"/>
<path fill-rule="evenodd" clip-rule="evenodd" d="M249.118 7.23114C201.5 -2.67441 148.944 -4.4658 105.239 15.1623C60.8488 35.0983 27.889 73.2503 9.81567 114.703C-7.24094 153.825 1.87724 196.891 7.84223 238.553C13.201 275.98 27.8838 310.039 42.8342 345.313C60.4393 386.851 69.5345 432.208 103.601 464.486C142.887 501.71 192.11 544.555 249.118 540.765C306.74 536.935 340.334 481.167 382.685 445.933C416.568 417.744 445.027 387.401 473.063 354.454C505.01 316.911 550.885 285.186 559.153 238.553C567.706 190.309 557.803 132.893 518.312 99.2331C478.232 65.0709 410.675 85.6115 358.998 67.9498C318.097 53.9713 291.757 16.1011 249.118 7.23114Z" fill="#FFFBFB" fill-opacity="0.35"/>
</svg>
