<svg width="661" height="544" viewBox="0 0 661 544" fill="none" xmlns="http://www.w3.org/2000/svg">
<path fill-rule="evenodd" clip-rule="evenodd" d="M367.998 10.2311C424.004 0.325594 485.819 -1.4658 537.222 18.1623C589.432 38.0983 628.198 76.2503 649.455 117.703C669.517 156.825 658.792 199.891 651.776 241.553C645.474 278.98 628.204 313.039 610.62 348.313C589.914 389.851 579.217 435.208 539.149 467.486C492.942 504.71 435.048 547.555 367.998 543.765C300.226 539.935 260.714 484.167 210.902 448.933C171.051 420.744 137.579 390.401 104.604 357.454C67.0291 319.911 13.0728 288.186 3.34864 241.553C-6.71123 193.309 4.93651 135.893 51.3842 102.233C98.5245 68.0709 177.982 88.6115 238.763 70.9498C286.868 56.9713 317.848 19.1011 367.998 10.2311Z" fill="#FFFBFB" fill-opacity="0.35"/>
<path d="M210.1 393.4C183.5 393.4 162.2 388.4 146.2 378.4C130.2 368.2 122.2 352.7 122.2 331.9C122.2 320.9 124.1 312.5 127.9 306.7C131.7 300.9 137.3 298 144.7 298C150.1 298 154.5 299.4 157.9 302.2C161.3 305 163 308.6 163 313C163 317 162.7 320.5 162.1 323.5C162.1 324.3 161.9 325.7 161.5 327.7C161.3 329.7 161.2 331.8 161.2 334C161.2 343 165.7 349.7 174.7 354.1C183.9 358.5 196.7 360.7 213.1 360.7C230.1 360.7 243.4 357.7 253 351.7C262.6 345.5 267.4 336.9 267.4 325.9C267.4 319.1 265.2 313.3 260.8 308.5C256.4 303.5 250.9 299.4 244.3 296.2C237.7 292.8 228.4 288.7 216.4 283.9C201 277.9 188.4 272.2 178.6 266.8C169 261.4 160.7 254.1 153.7 244.9C146.9 235.5 143.5 223.9 143.5 210.1C143.5 195.7 147.3 182.9 154.9 171.7C162.7 160.5 173.8 151.8 188.2 145.6C202.8 139.4 219.9 136.3 239.5 136.3C254.1 136.3 267.5 138.5 279.7 142.9C291.9 147.1 301.6 153.6 308.8 162.4C316.2 171.2 319.9 182 319.9 194.8C319.9 207.4 318 216.9 314.2 223.3C310.4 229.7 304.8 232.9 297.4 232.9C292.2 232.9 287.8 231.3 284.2 228.1C280.8 224.9 279.1 221.1 279.1 216.7C279.1 212.9 279.4 209.4 280 206.2C280.6 200.2 280.9 196.4 280.9 194.8C280.9 186.4 276.8 180 268.6 175.6C260.4 171.2 250.2 169 238 169C220.8 169 207.6 172.2 198.4 178.6C189.4 184.8 184.9 193.6 184.9 205C184.9 212.6 187.2 219.1 191.8 224.5C196.6 229.9 202.5 234.4 209.5 238C216.5 241.6 226.3 245.9 238.9 250.9C254.1 257.1 266.3 262.7 275.5 267.7C284.7 272.7 292.5 279.5 298.9 288.1C305.5 296.7 308.8 307.3 308.8 319.9C308.8 343.5 299.8 361.7 281.8 374.5C264 387.1 240.1 393.4 210.1 393.4Z" fill="#343434"/>
<path d="M573.526 324.1C576.126 324.1 578.126 325.3 579.526 327.7C581.126 330.1 581.926 333.4 581.926 337.6C581.926 345.4 580.026 351.6 576.226 356.2C566.626 367.8 556.926 376.8 547.126 383.2C537.326 389.4 525.726 392.5 512.326 392.5C497.526 392.5 485.426 388.2 476.026 379.6C466.626 370.8 457.826 357.2 449.626 338.8C443.626 325.6 438.626 315.8 434.626 309.4C430.826 302.8 427.026 298.2 423.226 295.6C419.426 292.8 414.626 291.1 408.826 290.5L405.526 312.7C401.326 341.3 393.126 361.9 380.926 374.5C368.926 387.1 352.326 393.4 331.126 393.4C317.326 393.4 305.026 390.1 294.226 383.5C283.626 376.7 276.226 368.1 272.026 357.7C270.626 354.1 269.926 350.2 269.926 346C269.926 340 271.326 334.8 274.126 330.4C276.926 326 280.526 323.8 284.926 323.8C287.526 323.8 289.726 324.5 291.526 325.9C293.326 327.1 295.026 329.3 296.626 332.5C302.826 344.1 308.226 352.2 312.826 356.8C317.626 361.4 323.526 363.7 330.526 363.7C338.526 363.7 345.326 360.1 350.926 352.9C356.726 345.5 360.826 334.2 363.226 319L367.426 290.5H362.626C358.026 290.5 354.426 289.2 351.826 286.6C349.226 284 347.926 280.4 347.926 275.8C347.926 270.6 349.226 266.5 351.826 263.5C354.626 260.3 358.026 258.7 362.026 258.7H371.926C373.326 248.9 374.326 242.1 374.926 238.3L384.226 170.8C379.026 170.2 374.126 169.9 369.526 169.9C352.526 169.9 339.626 172.9 330.826 178.9C322.026 184.7 317.626 193.1 317.626 204.1C317.626 209.1 318.126 213.2 319.126 216.4C320.326 219.4 321.826 222.8 323.626 226.6C324.426 228.2 324.826 230 324.826 232C324.826 236.4 322.726 240.3 318.526 243.7C314.526 246.9 310.026 248.5 305.026 248.5C298.626 248.5 293.926 245.7 290.926 240.1C284.926 229.5 281.926 218.1 281.926 205.9C281.926 193.3 285.326 181.8 292.126 171.4C299.126 161 309.626 152.7 323.626 146.5C337.626 140.1 354.926 136.9 375.526 136.9C384.526 136.9 392.726 137.4 400.126 138.4C407.726 139.4 416.026 141.3 425.026 144.1C434.826 147.1 439.726 152.7 439.726 160.9C439.726 171.9 435.026 177.4 425.626 177.4L413.926 258.1C437.326 255.7 456.326 245.7 470.926 228.1C485.726 210.3 498.026 186.2 507.826 155.8C509.626 150.2 512.626 145.9 516.826 142.9C521.226 139.9 526.726 138.4 533.326 138.4C538.926 138.4 543.226 139.7 546.226 142.3C549.426 144.7 551.026 148.2 551.026 152.8C551.026 154.2 550.626 156.5 549.826 159.7C539.826 192.7 525.526 218.9 506.926 238.3C488.326 257.7 468.026 270.6 446.026 277C453.626 278.8 459.826 281.5 464.626 285.1C469.626 288.7 473.826 293.2 477.226 298.6C480.626 303.8 484.526 311.1 488.926 320.5C495.126 333.7 500.926 343.1 506.326 348.7C511.726 354.1 518.026 356.8 525.226 356.8C531.626 356.8 537.726 354.7 543.526 350.5C549.326 346.1 556.626 338.7 565.426 328.3C567.826 325.5 570.526 324.1 573.526 324.1Z" fill="#343434"/>
</svg>
